<svg version="1.1" xmlns="http://www.w3.org/2000/svg" xmlns:xlink="http://www.w3.org/1999/xlink" width="20.20944" height="20.20944" viewBox="0,0,20.20944,20.20944"><g transform="translate(-309.89528,-169.89528)"><g data-paper-data="{&quot;isPaintingLayer&quot;:true}" fill-rule="nonzero" stroke="none" stroke-linecap="butt" stroke-linejoin="miter" stroke-miterlimit="10" stroke-dasharray="" stroke-dashoffset="0" style="mix-blend-mode: normal"><path d="M330.10472,180c0,5.58128 -4.52344,10.10472 -10.10472,10.10472c-5.58128,0 -10.10472,-4.52344 -10.10472,-10.10472c0,-5.58128 4.52344,-10.10472 10.10472,-10.10472c5.58128,0 10.10472,4.52344 10.10472,10.10472zM317.4383,176.21073c-0.66312,0 -1.22757,0.56444 -1.22757,1.22757v5.08788c0,0.69865 0.56444,1.26309 1.26309,1.26309c0.69865,0 1.26309,-0.56444 1.26309,-1.29861v-5.05236c0,-0.66312 -0.63549,-1.22757 -1.29861,-1.22757zM322.49065,176.21073c-0.66312,0 -1.22757,0.56444 -1.22757,1.22757v5.08788c0,0.69865 0.56444,1.26309 1.26309,1.26309c0.69865,0 1.26309,-0.56444 1.26309,-1.29861v-5.05236c0,-0.66312 -0.63549,-1.22757 -1.29861,-1.22757z" fill="#000000" stroke-width="1"/><path d="M314.33125,187.37292v-12.625h10.75v12.625z" fill-opacity="0.01176" fill="#00ffff" stroke-width="0"/></g></g></svg>