<svg version="1.1" xmlns="http://www.w3.org/2000/svg" xmlns:xlink="http://www.w3.org/1999/xlink" width="19.03454" height="19.03454" viewBox="0,0,19.03454,19.03454"><g transform="translate(-310.48273,-170.48273)"><g data-paper-data="{&quot;isPaintingLayer&quot;:true}" fill-rule="nonzero" stroke="none" stroke-linecap="butt" stroke-linejoin="miter" stroke-miterlimit="10" stroke-dasharray="" stroke-dashoffset="0" style="mix-blend-mode: normal"><path d="M329.51727,180c0,5.25681 -4.26046,9.51727 -9.51727,9.51727c-5.25681,0 -9.51727,-4.26046 -9.51727,-9.51727c0,-5.25681 4.26046,-9.51727 9.51727,-9.51727c5.25681,0 9.51727,4.26046 9.51727,9.51727zM317.02585,183.27156c0,0.32344 0.17473,0.62085 0.45727,0.777c0.27882,0.15986 0.62457,0.15242 0.89968,-0.01487l5.35346,-3.27156c0.26396,-0.16358 0.42754,-0.44984 0.42754,-0.76212c0,-0.31228 -0.16358,-0.59855 -0.42754,-0.76212l-5.35346,-3.27156c-0.27511,-0.20076 -0.62085,-0.17473 -0.89968,-0.01487c-0.28254,0.15615 -0.45727,0.45355 -0.45727,0.777z" fill="#000000" stroke-width="1"/><path d="M314.33125,187.37292v-12.625h10.75v12.625z" fill-opacity="0.01176" fill="#00ffff" stroke-width="0"/></g></g></svg>