<svg version="1.1" xmlns="http://www.w3.org/2000/svg" xmlns:xlink="http://www.w3.org/1999/xlink" width="669.66967" height="408.40841" viewBox="0,0,669.66967,408.40841"><g transform="translate(14.83483,24.20421)"><g data-paper-data="{&quot;isPaintingLayer&quot;:true}" fill-rule="nonzero" stroke-linejoin="miter" stroke-miterlimit="10" stroke-dasharray="" stroke-dashoffset="0" style="mix-blend-mode: normal"><path d="M-14.83483,384.20421v-408.40841h669.66967v408.40841z" fill="#000000" stroke="none" stroke-width="0" stroke-linecap="butt"/><g stroke="#ffffff"><path d="M297.53019,176.09279l0.19337,-30.55256l3.07393,1.35067" fill="none" stroke-width="2.5" stroke-linecap="round"/><path d="M318.64009,154.73082l4.60839,2.0249l-0.19337,14.5028" fill="none" stroke-width="2.5" stroke-linecap="round"/><path d="M307.98872,182.18127c0,5.99389 -4.36069,0.35457 -10.35457,0.35457c-5.99389,0 -11.35298,5.63931 -11.35298,-0.35457c0,-5.99389 4.85909,-10.85297 10.85298,-10.85297c5.99389,0 10.85457,4.86069 10.85457,10.85297z" fill="#a6d388" stroke-width="1" stroke-linecap="butt"/><path d="M333.32027,178.31386c0,5.99389 -4.86069,10.85457 -10.85457,10.85457c-5.99389,0 -3.10298,-4.36069 -3.10298,-10.35457c0,-5.99389 -2.89091,-11.35297 3.10298,-11.35297c5.99389,0 10.85457,4.86069 10.85457,10.85297z" fill="#ecffa3" stroke-width="1" stroke-linecap="butt"/></g><text transform="translate(234.41739,231.25967) scale(0.69394,0.69394)" font-size="22" xml:space="preserve" fill="#ffffff" fill-rule="nonzero" stroke="none" stroke-width="1" stroke-linecap="butt" stroke-linejoin="miter" stroke-miterlimit="10" stroke-dasharray="" stroke-dashoffset="0" font-family="Sans Serif" font-weight="400" text-anchor="start" style="mix-blend-mode: normal"><tspan x="0" dy="0">Go update on GitHub!</tspan></text><text transform="translate(182.64999,213.36667) scale(0.5,0.5)" font-size="40" xml:space="preserve" fill="#ffffff" fill-rule="nonzero" stroke="none" stroke-width="1" stroke-linecap="butt" stroke-linejoin="miter" stroke-miterlimit="10" stroke-dasharray="" stroke-dashoffset="0" font-family="Sans Serif" font-weight="normal" text-anchor="start" style="mix-blend-mode: normal"><tspan x="0" dy="0">Streamilator is out of date!</tspan></text></g></g></svg>