<svg version="1.1" xmlns="http://www.w3.org/2000/svg" xmlns:xlink="http://www.w3.org/1999/xlink" width="30.01802" height="30.01802" viewBox="0,0,30.01802,30.01802"><g transform="translate(-304.99099,-164.99099)"><g data-paper-data="{&quot;isPaintingLayer&quot;:true}" fill-rule="nonzero" stroke="none" stroke-linecap="butt" stroke-linejoin="miter" stroke-miterlimit="10" stroke-dasharray="" stroke-dashoffset="0" style="mix-blend-mode: normal"><path d="M335.00901,180c0,8.29013 -6.71888,15.00901 -15.00901,15.00901c-8.29013,0 -15.00901,-6.71888 -15.00901,-15.00901c0,-8.29013 6.71888,-15.00901 15.00901,-15.00901c8.29013,0 15.00901,6.71888 15.00901,15.00901zM327.23012,178.39943l-6.56644,-6.56644c-0.36584,-0.36631 -0.95987,-0.36631 -1.32619,0l-6.56644,6.56644c-0.26969,0.26969 -0.35177,0.66837 -0.2052,1.02014c0.14657,0.35177 0.48662,0.58043 0.86771,0.58043h3.75225v5.62838c0,1.03597 0.84015,1.87613 1.87613,1.87613h1.87613c1.03597,0 1.87613,-0.84015 1.87613,-1.87613v-5.62838h3.75225c0.38109,0 0.72114,-0.22865 0.86771,-0.58043c0.14657,-0.35177 0.06449,-0.75045 -0.20403,-1.02014z" fill="#000000" stroke-width="1"/><path d="M311.46329,188.9503v-18.79112h16.77272v18.79112z" fill-opacity="0.01176" fill="#00ffff" stroke-width="0"/></g></g></svg>