<svg version="1.1" xmlns="http://www.w3.org/2000/svg" xmlns:xlink="http://www.w3.org/1999/xlink" width="44.45149" height="46.28249" viewBox="0,0,44.45149,46.28249"><g transform="translate(-297.59792,-146.45513)"><g data-paper-data="{&quot;isPaintingLayer&quot;:true}" fill-rule="nonzero" stroke="#000000" stroke-linejoin="miter" stroke-miterlimit="10" stroke-dasharray="" stroke-dashoffset="0" style="mix-blend-mode: normal"><path d="M308.48899,176.58678l0.17862,-28.22236c0,0 13.81351,6.06958 18.09632,7.95141c2.35721,1.03573 3.94231,3.17848 3.94231,3.17848c0,0 1.50395,1.90088 1.48095,3.62586c-0.03292,2.46842 -0.12002,9.00105 -0.12002,9.00105" fill="none" stroke-width="2.5" stroke-linecap="round"/><path d="M318.14986,182.21091c0,5.53674 -4.48997,10.02671 -10.0267,10.02671c-5.53675,0 -10.02524,-4.48998 -10.02524,-10.02671c0,-5.53674 4.4885,-10.02523 10.02524,-10.02523c5.53675,0 10.0267,4.48997 10.0267,10.02523z" fill="#33aafa" stroke-width="1" stroke-linecap="butt"/><path d="M341.54941,178.63844c0,5.53674 -4.48998,10.02671 -10.02672,10.02671c-5.53675,0 -10.02524,-4.48998 -10.02524,-10.02671c0,-5.53674 4.48849,-10.02523 10.02524,-10.02523c5.53675,0 10.02672,4.48997 10.02672,10.02523z" fill="#ff578b" stroke-width="1" stroke-linecap="butt"/></g></g></svg>