<svg version="1.1" xmlns="http://www.w3.org/2000/svg" xmlns:xlink="http://www.w3.org/1999/xlink" width="35.25" height="16.75" viewBox="0,0,35.25,16.75"><g transform="translate(-305.00343,-171.57468)"><g data-paper-data="{&quot;isPaintingLayer&quot;:true}" fill-rule="nonzero" stroke-linejoin="miter" stroke-miterlimit="10" stroke-dasharray="" stroke-dashoffset="0" style="mix-blend-mode: normal"><path d="M305.00343,188.32468v-16.75h35.25v16.75z" fill-opacity="0.01176" fill="#00ffff" stroke="none" stroke-width="0" stroke-linecap="butt"/><path d="M338.86558,173.82376l-28.02393,0.15207" fill="none" stroke="#000000" stroke-width="1.5" stroke-linecap="round"/><path d="M310.87242,180.34172l27.93525,-0.15119" fill="none" stroke="#000000" stroke-width="1.5" stroke-linecap="round"/><path d="M338.65927,186.17624l-27.84842,-0.23165" fill="none" stroke="#000000" stroke-width="1.5" stroke-linecap="round"/><path d="M306.39363,173.90193c0,-0.69036 0.55964,-1.25 1.25,-1.25c0.69036,0 1.25,0.55964 1.25,1.25c0,0.69036 -0.55964,1.25 -1.25,1.25c-0.69036,0 -1.25,-0.55964 -1.25,-1.25z" fill="#000000" stroke="none" stroke-width="0.5" stroke-linecap="butt"/><path d="M306.26631,180.14066c0,-0.69036 0.55964,-1.25 1.25,-1.25c0.69036,0 1.25,0.55964 1.25,1.25c0,0.69036 -0.55964,1.25 -1.25,1.25c-0.69036,0 -1.25,-0.55964 -1.25,-1.25z" fill="#000000" stroke="none" stroke-width="0.5" stroke-linecap="butt"/><path d="M306.39363,185.99742c0,-0.69036 0.55964,-1.25 1.25,-1.25c0.69036,0 1.25,0.55964 1.25,1.25c0,0.69036 -0.55964,1.25 -1.25,1.25c-0.69036,0 -1.25,-0.55964 -1.25,-1.25z" fill="#000000" stroke="none" stroke-width="0.5" stroke-linecap="butt"/></g></g></svg>