<svg version="1.1" xmlns="http://www.w3.org/2000/svg" xmlns:xlink="http://www.w3.org/1999/xlink" width="53.60946" height="89.67094" viewBox="0,0,53.60946,89.67094"><g transform="translate(-285.96621,-167.22923)"><g data-paper-data="{&quot;isPaintingLayer&quot;:true}" fill-rule="nonzero" stroke-linejoin="miter" stroke-miterlimit="10" stroke-dasharray="" stroke-dashoffset="0" style="mix-blend-mode: normal"><text transform="translate(286.21621,251.06684) scale(0.5,0.5)" font-size="40" xml:space="preserve" fill="#ffffff" fill-rule="nonzero" stroke="none" stroke-width="1" stroke-linecap="butt" stroke-linejoin="miter" stroke-miterlimit="10" stroke-dasharray="" stroke-dashoffset="0" font-family="Sans Serif" font-weight="normal" text-anchor="start" style="mix-blend-mode: normal"><tspan x="0" dy="0"> </tspan></text><path d="M301.35652,192.02506v-24.79583h38.21915v24.79583z" fill-opacity="0.01176" fill="#00ffff" stroke="none" stroke-width="0" stroke-linecap="butt"/><path d="M324.85968,176.22838c1.7085,-3.18621 0.78462,-6.74158 4.51602,-6.85465c11.02837,-0.33419 9.42501,20.40593 -0.18643,20.69427c-3.75808,0.11275 -2.71576,1.10911 -4.3505,-2.6947" fill="none" stroke="#000000" stroke-width="2.5" stroke-linecap="round"/><path d="M315.84261,184.98272c-2.04038,5.13243 -0.41968,5.50387 -5.1104,5.64459c-9.56638,0.28699 -11.12206,-20.35724 0,-20.69427c3.08926,-0.09361 3.28947,1.97054 3.69693,4.55947c0.18444,1.17188 0.41134,2.45128 0.96787,3.68675" fill="none" stroke="#000000" stroke-width="2.5" stroke-linecap="round"/></g></g></svg>