<svg version="1.1" xmlns="http://www.w3.org/2000/svg" xmlns:xlink="http://www.w3.org/1999/xlink" width="44.35161" height="44.42649" viewBox="0,0,44.35161,44.42649"><g transform="translate(-297.82419,-157.78676)"><g data-paper-data="{&quot;isPaintingLayer&quot;:true}" fill="#ffffff" fill-rule="nonzero" stroke="none" stroke-width="1" stroke-linecap="butt" stroke-linejoin="miter" stroke-miterlimit="10" stroke-dasharray="" stroke-dashoffset="0" style="mix-blend-mode: normal"><path d="M328.23676,180.03898c0,4.51468 -3.56878,8.23763 -8.23763,8.23763c-4.66886,0 -8.23763,-3.87888 -8.23763,-8.39355c0,-4.51468 3.645,-8.23763 8.23763,-8.23763c4.5909,0 8.23763,3.87888 8.23763,8.39355zM341.08522,189.97681l-9.44166,1.70643l-1.70643,9.44166c-0.17064,0.94668 -1.26406,1.39944 -2.05465,0.85079l-7.88336,-5.4701l-7.88388,5.47045c-0.79084,0.54883 -1.88357,0.0958 -2.05465,-0.85097l-1.70643,-9.44166l-9.44166,-1.70643c-0.94668,-0.1715 -1.39944,-1.26423 -0.85097,-2.05465l5.4701,-7.88336l-5.47045,-7.96045c-0.54848,-0.71029 -0.09554,-1.81038 0.85097,-1.97495l9.44513,-1.70643l1.62674,-9.44513c0.1715,-0.94685 1.26423,-1.39944 2.05465,-0.85097l7.96045,5.47045l7.88284,-5.54754c0.79084,-0.54883 1.88357,-0.0958 2.05465,0.85097l1.70643,9.44166l9.44166,1.70643c0.94677,0.1715 1.39961,1.26423 0.85114,2.05465l-5.4701,7.88336l5.47444,7.96045c0.54571,0.78825 0.09528,1.88833 -0.85494,2.05534zM331.00863,180.03898c0,-6.04612 -4.96424,-11.00949 -11.00949,-11.00949c-6.04527,0 -11.00949,4.88628 -11.00949,11.00949c0,6.04527 4.88628,11.00949 11.00949,11.00949c6.12409,0 11.00949,-4.88541 11.00949,-11.00949z"/></g></g></svg>